<svg width="15" height="14" viewBox="0 0 15 14" fill="none" xmlns="http://www.w3.org/2000/svg">
<path d="M8.43748 6.17387L8.43734 6.17371C8.2694 5.98329 8.04747 5.84853 7.80106 5.78735C7.55465 5.72616 7.29545 5.74147 7.05796 5.83122C6.82046 5.92097 6.61592 6.08091 6.47156 6.28977C6.32722 6.4986 6.24989 6.74642 6.24984 7.00027L8.43748 6.17387ZM8.43748 6.17387C8.62765 6.38932 8.89562 6.5204 9.18244 6.53828C9.46926 6.55615 9.75143 6.45936 9.96688 6.26919C10.1823 6.07901 10.3134 5.81104 10.3313 5.52422C10.3492 5.23746 10.2524 4.95534 10.0623 4.73991M8.43748 6.17387L10.0623 9.26015M10.0623 9.26015L10.0623 9.26016C9.60325 9.7806 8.99658 10.1489 8.32305 10.3161C7.64951 10.4833 6.94103 10.4414 6.29189 10.196C5.64275 9.9506 5.08372 9.51336 4.68919 8.94244C4.29466 8.37153 4.08333 7.69401 4.08333 7.00003C4.08333 6.30606 4.29466 5.62854 4.68919 5.05762C5.08372 4.48671 5.64275 4.04947 6.29189 3.80409C6.94103 3.5587 7.64951 3.51681 8.32305 3.68398C8.99658 3.85115 9.60325 4.21947 10.0623 4.73991M10.0623 9.26015C10.1564 9.15345 10.2286 9.02926 10.2747 8.89467C10.3208 8.76009 10.34 8.61773 10.3311 8.47574C10.3222 8.33375 10.2854 8.1949 10.2228 8.06713C10.1603 7.93936 10.0731 7.82516 9.96645 7.73105C9.85975 7.63694 9.73556 7.56477 9.60098 7.51866L9.43892 7.99167M10.0623 9.26015L9.43892 7.99167M10.0623 4.73991L9.68734 5.07066L10.0622 4.73978C10.0622 4.73982 10.0623 4.73987 10.0623 4.73991ZM9.43892 7.99167L9.60097 7.51866C9.46638 7.47255 9.32403 7.4534 9.18205 7.4623C9.04006 7.4712 8.90121 7.50798 8.77343 7.57055C8.64566 7.63311 8.53146 7.72023 8.43735 7.82692L8.43734 7.82694M9.43892 7.99167L8.43734 7.82694M8.43734 7.82694C8.2694 8.01736 8.04747 8.15212 7.80106 8.21331M8.43734 7.82694L7.80106 8.21331M7.80106 8.21331C7.55465 8.27449 7.29545 8.25918 7.05796 8.16943M7.80106 8.21331L7.05796 8.16943M7.05796 8.16943C6.82046 8.07968 6.61592 7.91974 6.47156 7.71088M7.05796 8.16943L6.47156 7.71088M6.47156 7.71088C6.32722 7.50206 6.24989 7.25423 6.24984 7.00038L6.47156 7.71088ZM2.1665 7.00033C2.1665 4.05472 4.55423 1.66699 7.49984 1.66699C10.4454 1.66699 12.8332 4.05472 12.8332 7.00033C12.8332 9.94593 10.4454 12.3337 7.49984 12.3337C4.55423 12.3337 2.1665 9.94593 2.1665 7.00033Z" stroke="#FFDD00"/>
</svg>
