<svg width="228" height="228" viewBox="0 0 228 228" fill="none" xmlns="http://www.w3.org/2000/svg">
<path d="M30.571 4.1409C31.9628 -0.0314438 38.1924 -1.40122 41.8424 1.66254C42.7647 2.43669 43.4 3.41858 43.6714 4.48942L54.8941 48.7643C56.1903 53.8781 54.8288 59.2132 51.1507 63.4325L17.7516 101.746C16.5492 103.125 14.8655 104.157 12.9338 104.697C5.46713 106.786 -1.74574 101.02 0.376405 94.6584L30.571 4.1409Z" fill="#F6F6F6"/>
<path d="M211.368 7.96168C212.329 6.86865 213.62 6.01037 215.107 5.47522C222.029 2.98515 229.355 8.22231 227.529 14.3548L198.441 112.018C196.591 118.231 186.88 119.717 182.537 114.451C181.776 113.529 181.273 112.474 181.066 111.366L171.857 62.0855C170.951 57.2352 172.395 52.2822 175.869 48.3321L211.368 7.96168Z" fill="#F6F6F6"/>
<path d="M21.3743 54.4674C21.3743 48.7704 26.8499 44.1403 33.6369 44.0984L193.74 43.1102C201.249 43.0639 207.365 48.1603 207.365 54.4632C207.365 60.7988 201.187 65.9084 193.64 65.8153L114.37 64.8368H96.5911H93.856H87.0181H80.1802H67.872H33.7277C26.9051 64.8368 21.3743 60.1943 21.3743 54.4674Z" fill="#F6F6F6"/>
<path d="M96.4342 55.6717C98.0768 50.4453 104.165 47.11 110.526 47.9516C117.817 48.9162 122.547 54.9277 120.743 60.9354L97.355 138.795L73.9318 216.773C72.0953 222.886 64.702 226.593 57.4184 225.051C50.0783 223.498 45.6617 217.213 47.5927 211.069L96.4342 55.6717Z" fill="#F6F6F6"/>
<path d="M164.603 227.771C165.744 227.872 166.92 227.782 168.038 227.566C191.708 223.01 193.689 191.786 193.689 170.446C193.689 135.905 162.097 113.05 125.686 113.05C108.184 113.05 100.179 116.514 92.1652 125.629C88.3053 130.019 91.4382 136.008 97.9389 136.008C98.4014 136.008 99.8779 135.975 100.335 135.913C145.802 129.799 179.944 147.719 166.338 193.405C160.19 215.269 153.317 226.773 164.603 227.771Z" fill="#F6F6F6"/>
<path d="M50.6621 41.0476C50.6988 42.8566 52.4592 46.4405 59.2072 46.3035L59.3174 51.7306L59.4275 57.1577L50.9925 57.3289L42.5024 54.7865L42.3372 46.6458L42.2821 43.9323L50.7171 43.7611" stroke="#F6F6F6" stroke-width="4.55625"/>
<path d="M177.694 75.178C175.871 67.888 167.822 63.028 164.025 61.5093L175.416 52.3968L182.25 56.953L189.084 68.3437L177.694 75.178Z" fill="#F6F6F6" stroke="#F6F6F6" stroke-width="4.55625"/>
<path d="M81.7903 138.462L92.9436 145.677C97.959 132.17 107.041 133.237 111.62 132.632L107.528 118.817L95.9899 122.986L81.7903 138.462Z" fill="#F6F6F6" stroke="#F6F6F6" stroke-width="4.55625"/>
<path d="M52.3886 62.6439C48.7441 62.705 44.8552 66.3081 43.3663 68.1021L41.1329 70.793L41.0885 68.1402L40.9106 57.5293L45.4663 57.4529L52.2997 57.3384L52.3886 62.6439Z" fill="#F6F6F6" stroke="#F6F6F6" stroke-width="4.55625"/>
<path d="M101.403 71.7574L93.5055 73.6936C94.9834 64.5242 87.2804 62.4835 83.2441 62.6093L86.6729 46.874L90.8839 48.4322L96.9342 57.9582L99.5641 63.7895L101.403 71.7574Z" fill="#F6F6F6"/>
<path d="M83.2441 62.6093C83.2442 62.6093 83.2441 62.6093 83.2441 62.6093ZM83.2441 62.6093C87.2804 62.4835 94.9834 64.5242 93.5055 73.6936L101.403 71.7574L99.5641 63.7895L96.9342 57.9582L90.8839 48.4322L86.6729 46.874L83.2441 62.6093Z" stroke="#F6F6F6" stroke-width="4.55625"/>
<path d="M126.549 62.4956C122.17 63.3879 117.052 68.5863 115.04 71.074L113.847 69.3691L116.303 56.7914L125.777 56.0299L126.549 62.4956Z" fill="#F6F6F6" stroke="#F6F6F6" stroke-width="4.55625"/>
<path d="M190.149 36.8292C185.085 44.386 173.549 46.0947 168.414 46.0044L171.271 58.7978L183.651 55.8297L196.199 43.3071L190.149 36.8292Z" fill="#F6F6F6" stroke="#F6F6F6" stroke-width="4.55625"/>
<path d="M116.059 116.44C103.856 116.114 103.954 107.001 105.529 102.485L98.8702 106.865L100.685 120.587L116.059 116.44Z" fill="#F6F6F6" stroke="#F6F6F6" stroke-width="4.55625"/>
</svg>
