<svg width="389" height="86" viewBox="0 0 389 86" fill="none" xmlns="http://www.w3.org/2000/svg">
<path d="M11.4641 1.55284C11.986 -0.0117914 14.3222 -0.525457 15.6909 0.623454C16.0368 0.91376 16.275 1.28197 16.3768 1.68353L20.5853 18.2866C21.0714 20.2043 20.5608 22.2049 19.1815 23.7872L6.65686 38.1547C6.20595 38.672 5.57457 39.0587 4.85017 39.2614C2.05017 40.0449 -0.654651 37.8826 0.141152 35.4969L11.4641 1.55284Z" fill="#1E1E1E"/>
<path d="M79.2628 2.98563C79.6233 2.57574 80.1073 2.25389 80.6652 2.05321C83.2609 1.11943 86.0082 3.08337 85.3233 5.38307L74.4154 42.0068C73.7215 44.3367 70.0799 44.8938 68.4513 42.9192C68.1661 42.5733 67.9775 42.1778 67.8999 41.7622L64.4464 23.2821C64.1064 21.4632 64.6482 19.6058 65.9508 18.1245L79.2628 2.98563Z" fill="#1E1E1E"/>
<path d="M8.01536 20.4253C8.01536 18.2889 10.0687 16.5526 12.6138 16.5369L72.6524 16.1663C75.4682 16.149 77.7619 18.0601 77.7619 20.4237C77.7619 22.7995 75.4453 24.7157 72.6152 24.6807L42.8886 24.3138H36.2217H35.196H32.6318H30.0676H25.452H12.6479C10.0894 24.3138 8.01536 22.5728 8.01536 20.4253Z" fill="#1E1E1E"/>
<path d="M36.1628 20.8769C36.7788 18.917 39.0617 17.6663 41.4471 17.9818C44.1813 18.3436 45.9553 20.5979 45.2785 22.8508L36.5081 52.0482L27.7244 81.2897C27.0358 83.5824 24.2633 84.9723 21.5319 84.3943C18.7794 83.8117 17.1231 81.4548 17.8472 79.1509L36.1628 20.8769Z" fill="#1E1E1E"/>
<path d="M61.7263 85.4142C62.1541 85.4521 62.5951 85.4181 63.0144 85.3374C71.8904 83.6289 72.6334 71.9198 72.6334 63.9173C72.6334 50.9645 60.7864 42.3936 47.1324 42.3936C40.569 42.3936 37.567 43.6928 34.562 47.1109C33.1145 48.7573 34.2893 51.0031 36.7271 51.0031C36.9005 51.0031 37.4542 50.9906 37.6255 50.9675C54.6756 48.6748 67.4791 55.3947 62.3766 72.5268C60.0713 80.7257 57.4937 85.0397 61.7263 85.4142Z" fill="#1E1E1E"/>
<path d="M18.9983 15.3928C19.0121 16.0712 19.6723 17.4152 22.2028 17.3638L22.2441 19.399L22.2854 21.4341L19.1222 21.4983L15.9384 20.5449L15.8765 17.4922L15.8559 16.4746L19.019 16.4104" stroke="#1E1E1E" stroke-width="1.70859"/>
<path d="M66.6351 28.1918C65.9516 25.458 62.9331 23.6355 61.5093 23.066L65.7808 19.6488L68.3437 21.3574L70.9065 25.6289L66.6351 28.1918Z" fill="#1E1E1E" stroke="#1E1E1E" stroke-width="1.70859"/>
<path d="M30.6714 51.9231L34.8539 54.6289C36.7347 49.5637 40.1403 49.9638 41.8575 49.7369L40.3231 44.5563L35.9963 46.1196L30.6714 51.9231Z" fill="#1E1E1E" stroke="#1E1E1E" stroke-width="1.70859"/>
<path d="M19.6458 23.4915C18.2791 23.5144 16.8208 24.8655 16.2624 25.5383L15.4249 26.5474L15.4082 25.5526L15.3416 21.5735L17.0499 21.5449L19.6124 21.5019L19.6458 23.4915Z" fill="#1E1E1E" stroke="#1E1E1E" stroke-width="1.70859"/>
<path d="M38.0264 26.909L35.0647 27.6351C35.6189 24.1966 32.7303 23.4313 31.2167 23.4785L32.5024 17.5777L34.0816 18.1621L36.3505 21.7343L37.3367 23.9211L38.0264 26.909Z" fill="#1E1E1E"/>
<path d="M31.2167 23.4785C31.2167 23.4785 31.2167 23.4785 31.2167 23.4785ZM31.2167 23.4785C32.7303 23.4313 35.6189 24.1966 35.0647 27.6351L38.0264 26.909L37.3367 23.9211L36.3505 21.7343L34.0816 18.1621L32.5024 17.5777L31.2167 23.4785Z" stroke="#1E1E1E" stroke-width="1.70859"/>
<path d="M47.4561 23.4359C45.8139 23.7705 43.8946 25.7199 43.1402 26.6527L42.6928 26.0134L43.6139 21.2968L47.1666 21.0112L47.4561 23.4359Z" fill="#1E1E1E" stroke="#1E1E1E" stroke-width="1.70859"/>
<path d="M71.3058 13.8109C69.4068 16.6448 65.0807 17.2855 63.155 17.2517L64.2264 22.0492L68.869 20.9361L73.5746 16.2402L71.3058 13.8109Z" fill="#1E1E1E" stroke="#1E1E1E" stroke-width="1.70859"/>
<path d="M43.522 43.6648C38.9461 43.5427 38.9828 40.1253 39.5731 38.4318L37.0762 40.0744L37.7566 45.2201L43.522 43.6648Z" fill="#1E1E1E" stroke="#1E1E1E" stroke-width="1.70859"/>
<path d="M124.507 57.2138C124.796 60.3854 125.625 62.4217 126.994 63.3227C126.634 64.2598 126.003 64.9806 125.102 65.4851C124.237 66.0258 123.21 66.2961 122.021 66.2961C120.363 66.2961 119.101 65.7555 118.236 64.6742C117.407 63.593 116.813 62.0973 116.452 60.1872C116.236 58.9258 116.074 57.6463 115.966 56.3488H106.235C105.154 58.9438 103.982 61.8991 102.721 65.2148H95.801L112.398 29.5346H122.399L124.507 57.2138ZM114.776 35.5354C113.371 38.8151 111.749 42.7075 109.911 47.2125C109.587 48.0054 109.244 48.8344 108.884 49.6993C108.559 50.5283 108.199 51.3933 107.803 52.2943H115.695L114.776 35.5354ZM140.916 41.2658C141.853 39.7882 143.079 38.6349 144.592 37.8059C146.142 36.941 147.854 36.5085 149.728 36.5085C152.503 36.5085 154.485 37.3915 155.675 39.1575C156.9 40.8874 157.513 43.4283 157.513 46.7801C157.513 50.276 156.9 53.5016 155.675 56.457C154.485 59.4123 152.683 61.791 150.269 63.593C147.89 65.395 145.007 66.2961 141.619 66.2961C140.213 66.2961 138.826 66.0798 137.456 65.6473L135.726 74.9458L127.293 75.8108L134.645 37.6437L141.565 36.7788L140.916 41.2658ZM138.267 61.7009C138.772 62.1334 139.366 62.4577 140.051 62.674C140.736 62.8902 141.403 62.9983 142.051 62.9983C143.745 62.9983 145.061 62.1514 145.998 60.4575C146.971 58.7636 147.764 56.1686 148.377 52.6727C149.025 49.429 149.35 46.762 149.35 44.6717C149.35 43.3021 149.133 42.275 148.701 41.5902C148.304 40.8694 147.584 40.509 146.538 40.509C144.989 40.509 143.727 41.2298 142.754 42.6714C141.817 44.113 141.168 45.825 140.808 47.8072L138.267 61.7009ZM176.47 36.5625C181.984 36.5625 184.741 38.6889 184.741 42.9417C184.741 45.9331 183.408 48.2577 180.741 49.9156C178.11 51.5735 174.524 52.4024 169.983 52.4024H168.091C167.983 53.3755 167.928 54.2945 167.928 55.1595C167.928 56.9615 168.289 58.3311 169.01 59.2681C169.731 60.1692 170.956 60.6197 172.686 60.6197C174.2 60.6197 175.605 60.2953 176.903 59.6466C178.2 58.9618 179.191 58.0067 179.876 56.7813C180.741 57.1778 181.173 57.9707 181.173 59.16C181.173 60.4575 180.669 61.6648 179.66 62.7821C178.687 63.8633 177.353 64.7103 175.659 65.323C173.965 65.9717 172.109 66.2961 170.091 66.2961C166.739 66.2961 164.18 65.377 162.414 63.539C160.648 61.6648 159.765 58.8176 159.765 54.9973C159.765 51.7897 160.378 48.7803 161.603 45.9691C162.865 43.158 164.739 40.8874 167.226 39.1575C169.749 37.4275 172.83 36.5625 176.47 36.5625ZM175.281 39.4818C173.695 39.4818 172.307 40.4369 171.118 42.3471C169.929 44.2572 169.046 46.7801 168.469 49.9156C171.064 49.9156 173.244 49.2488 175.01 47.9153C176.776 46.5818 177.659 44.7798 177.659 42.5092C177.659 40.491 176.867 39.4818 175.281 39.4818ZM189.591 43.8067C189.158 42.7615 188.654 41.9326 188.077 41.3199C187.501 40.7072 186.744 40.3468 185.807 40.2387C186.059 39.0493 186.672 38.1483 187.645 37.5356C188.654 36.8869 189.825 36.5625 191.159 36.5625C192.708 36.5625 193.934 37.013 194.835 37.9141C195.772 38.8151 196.619 40.1666 197.376 41.9686L199.862 47.8613C202.097 46.2755 203.214 44.2212 203.214 41.6983C203.214 40.3288 202.854 39.0313 202.133 37.8059C203.322 36.977 204.71 36.5625 206.296 36.5625C207.701 36.5625 208.765 36.941 209.485 37.6978C210.206 38.4186 210.567 39.4458 210.567 40.7793C210.567 42.5813 209.954 44.2031 208.728 45.6448C207.503 47.0864 205.809 48.4379 203.647 49.6993L201.106 51.0509L204.241 59.0519C205.07 61.2504 206.332 62.4397 208.026 62.6199C207.737 63.7732 207.107 64.6742 206.134 65.323C205.16 65.9717 203.989 66.2961 202.62 66.2961C201.07 66.2961 199.826 65.8456 198.889 64.9445C197.952 64.0075 197.123 62.656 196.403 60.89L193.916 54.5108C192.762 55.3397 191.843 56.3308 191.159 57.4841C190.51 58.6374 190.186 59.8628 190.186 61.1603C190.186 62.4938 190.546 63.7732 191.267 64.9986C190.113 65.8636 188.726 66.2961 187.104 66.2961C185.698 66.2961 184.635 65.9176 183.914 65.1608C183.158 64.4039 182.779 63.3588 182.779 62.0252C182.779 58.5293 185.32 55.3397 190.402 52.4565L192.618 51.3212L189.591 43.8067ZM246.875 29.5346C246.875 33.5712 244.857 35.5894 240.82 35.5894C239.703 35.5894 238.514 35.4633 237.252 35.211C235.991 34.9227 234.892 34.5623 233.955 34.1298L232.171 44.3473H242.226C242.226 46.0773 241.757 47.4288 240.82 48.4019C239.883 49.3389 238.514 49.8075 236.712 49.8075C234.91 49.8075 233.108 49.375 231.306 48.51L228.332 65.2148H219.196L225.954 29.5346H246.875ZM260.537 29.5346L253.563 65.2148H244.535L251.4 29.5346H260.537ZM282.998 29.5346C283.935 29.5346 284.836 29.4805 285.701 29.3724C286.602 29.2643 287.305 29.1201 287.809 28.9399C288.061 29.2643 288.242 29.6788 288.35 30.1833C288.494 30.6879 288.566 31.1925 288.566 31.697C288.566 33.0305 288.043 33.9496 286.998 34.4541C285.989 34.9227 284.602 35.1569 282.836 35.1569H279.592L274.997 58.3491C274.744 59.9349 274.618 61.0882 274.618 61.809C274.618 62.9263 274.853 63.8994 275.321 64.7283C273.915 65.7735 272.276 66.2961 270.401 66.2961C267.446 66.2961 265.968 64.7824 265.968 61.7549C265.968 60.0971 266.275 57.7364 266.888 54.673L270.834 35.1569H267.32C265.626 35.1569 264.293 35.3011 263.319 35.5894C263.175 35.3011 263.049 34.9407 262.941 34.5082C262.869 34.0397 262.833 33.6252 262.833 33.2648C262.833 31.8592 263.319 30.8861 264.293 30.3455C265.302 29.8049 266.635 29.5346 268.293 29.5346H282.998ZM296.551 41.8605C297.524 40.0585 298.822 38.725 300.444 37.86C302.102 36.995 303.994 36.5625 306.12 36.5625C310.914 36.5625 313.31 38.761 313.31 43.158C313.31 44.4194 313.148 45.861 312.824 47.4828C312.535 49.1047 312.103 51.0689 311.526 53.3755C311.058 55.2856 310.715 56.7633 310.499 57.8085C310.283 58.8537 310.175 59.7367 310.175 60.4575C310.175 61.2143 310.319 61.809 310.607 62.2415C310.932 62.674 311.472 62.9263 312.229 62.9983C311.905 64.0796 311.22 64.8905 310.175 65.4311C309.166 66.0077 308.012 66.2961 306.715 66.2961C305.201 66.2961 304.012 65.8996 303.147 65.1067C302.282 64.2778 301.849 63.0704 301.849 61.4846C301.849 60.5115 301.975 59.3943 302.228 58.1329C302.48 56.8714 302.913 54.9433 303.525 52.3483C304.57 48.0955 305.093 45.2663 305.093 43.8608C305.093 42.8877 304.859 42.1308 304.39 41.5902C303.958 41.0135 303.291 40.7252 302.39 40.7252C300.768 40.7252 299.471 41.5902 298.498 43.3201C297.524 45.0141 296.804 47.0684 296.335 49.4831L293.254 65.2148L284.82 66.0798L290.388 37.6437L297.308 36.7788L296.551 41.8605ZM333.004 36.5625C338.518 36.5625 341.275 38.6889 341.275 42.9417C341.275 45.9331 339.942 48.2577 337.275 49.9156C334.644 51.5735 331.058 52.4024 326.517 52.4024H324.625C324.517 53.3755 324.462 54.2945 324.462 55.1595C324.462 56.9615 324.823 58.3311 325.544 59.2681C326.264 60.1692 327.49 60.6197 329.22 60.6197C330.734 60.6197 332.139 60.2953 333.437 59.6466C334.734 58.9618 335.725 58.0067 336.41 56.7813C337.275 57.1778 337.707 57.9707 337.707 59.16C337.707 60.4575 337.203 61.6648 336.194 62.7821C335.221 63.8633 333.887 64.7103 332.193 65.323C330.499 65.9717 328.643 66.2961 326.625 66.2961C323.273 66.2961 320.714 65.377 318.948 63.539C317.182 61.6648 316.299 58.8176 316.299 54.9973C316.299 51.7897 316.912 48.7803 318.137 45.9691C319.399 43.158 321.273 40.8874 323.76 39.1575C326.283 37.4275 329.364 36.5625 333.004 36.5625ZM331.815 39.4818C330.229 39.4818 328.841 40.4369 327.652 42.3471C326.463 44.2572 325.58 46.7801 325.003 49.9156C327.598 49.9156 329.778 49.2488 331.544 47.9153C333.31 46.5818 334.193 44.7798 334.193 42.5092C334.193 40.491 333.401 39.4818 331.815 39.4818ZM354.396 59.7006C354.396 58.6554 354 57.7724 353.207 57.0516C352.45 56.2948 351.171 55.3037 349.369 54.0783C347.386 52.7808 345.927 51.5554 344.99 50.4021C344.053 49.2488 343.584 47.8432 343.584 46.1854C343.584 44.3113 344.143 42.6534 345.26 41.2118C346.413 39.7341 347.963 38.5988 349.909 37.8059C351.891 36.977 354.09 36.5625 356.505 36.5625C358.847 36.5625 360.739 36.977 362.181 37.8059C363.659 38.5988 364.397 39.9143 364.397 41.7524C364.397 43.23 363.911 44.3833 362.938 45.2123C362.001 46.0412 360.757 46.4557 359.208 46.4557C358.162 46.4557 357.406 46.2575 356.937 45.861C357.442 44.5275 357.694 43.3562 357.694 42.3471C357.694 41.374 357.442 40.6351 356.937 40.1306C356.469 39.5899 355.802 39.3196 354.937 39.3196C353.783 39.3196 352.828 39.7161 352.072 40.509C351.351 41.2658 350.99 42.1488 350.99 43.158C350.99 44.2031 351.369 45.1042 352.126 45.861C352.919 46.6179 354.234 47.609 356.072 48.8344C358.018 50.1318 359.46 51.3392 360.397 52.4565C361.334 53.5737 361.803 54.9973 361.803 56.7273C361.803 58.5653 361.244 60.2232 360.127 61.7009C359.045 63.1425 357.532 64.2778 355.586 65.1067C353.675 65.9357 351.531 66.3501 349.152 66.3501C346.629 66.3501 344.431 65.8996 342.557 64.9986C340.719 64.0615 339.8 62.674 339.8 60.8359C339.8 59.4664 340.322 58.4212 341.367 57.7004C342.413 56.9435 343.656 56.5651 345.098 56.5651C346.287 56.5651 347.26 56.8174 348.017 57.3219C347.512 58.5113 347.26 59.5384 347.26 60.4034C347.26 61.3765 347.512 62.1514 348.017 62.728C348.522 63.2686 349.26 63.539 350.233 63.539C351.423 63.539 352.414 63.1785 353.207 62.4577C354 61.7009 354.396 60.7818 354.396 59.7006ZM377.731 59.7006C377.731 58.6554 377.335 57.7724 376.542 57.0516C375.785 56.2948 374.505 55.3037 372.703 54.0783C370.721 52.7808 369.262 51.5554 368.324 50.4021C367.387 49.2488 366.919 47.8432 366.919 46.1854C366.919 44.3113 367.478 42.6534 368.595 41.2118C369.748 39.7341 371.298 38.5988 373.244 37.8059C375.226 36.977 377.425 36.5625 379.839 36.5625C382.182 36.5625 384.074 36.977 385.516 37.8059C386.994 38.5988 387.732 39.9143 387.732 41.7524C387.732 43.23 387.246 44.3833 386.273 45.2123C385.336 46.0412 384.092 46.4557 382.543 46.4557C381.497 46.4557 380.74 46.2575 380.272 45.861C380.777 44.5275 381.029 43.3562 381.029 42.3471C381.029 41.374 380.777 40.6351 380.272 40.1306C379.803 39.5899 379.137 39.3196 378.272 39.3196C377.118 39.3196 376.163 39.7161 375.406 40.509C374.686 41.2658 374.325 42.1488 374.325 43.158C374.325 44.2031 374.704 45.1042 375.461 45.861C376.253 46.6179 377.569 47.609 379.407 48.8344C381.353 50.1318 382.795 51.3392 383.732 52.4565C384.669 53.5737 385.137 54.9973 385.137 56.7273C385.137 58.5653 384.579 60.2232 383.462 61.7009C382.38 63.1425 380.867 64.2778 378.92 65.1067C377.01 65.9357 374.866 66.3501 372.487 66.3501C369.964 66.3501 367.766 65.8996 365.892 64.9986C364.054 64.0615 363.135 62.674 363.135 60.8359C363.135 59.4664 363.657 58.4212 364.702 57.7004C365.748 56.9435 366.991 56.5651 368.433 56.5651C369.622 56.5651 370.595 56.8174 371.352 57.3219C370.847 58.5113 370.595 59.5384 370.595 60.4034C370.595 61.3765 370.847 62.1514 371.352 62.728C371.856 63.2686 372.595 63.539 373.568 63.539C374.758 63.539 375.749 63.1785 376.542 62.4577C377.335 61.7009 377.731 60.7818 377.731 59.7006Z" fill="#1E1E1E"/>
</svg>
