<svg width="150" height="33" viewBox="0 0 150 33" fill="none" xmlns="http://www.w3.org/2000/svg">
<path d="M4.4247 0.613006C4.62614 0.00912085 5.52779 -0.189134 6.05607 0.2543C6.18956 0.366347 6.28151 0.50846 6.32079 0.663449L7.94511 7.07158C8.13272 7.81173 7.93566 8.58391 7.40331 9.19459L2.56929 14.7399C2.39525 14.9395 2.15156 15.0888 1.87197 15.167C0.791286 15.4694 -0.252669 14.6349 0.0544791 13.7141L4.4247 0.613006Z" fill="#F6F6F6"/>
<path d="M30.5923 1.16601C30.7314 1.00781 30.9183 0.883585 31.1336 0.806129C32.1354 0.445729 33.1958 1.20373 32.9314 2.09132L28.7214 16.2266C28.4536 17.1259 27.0481 17.3409 26.4195 16.5788C26.3094 16.4453 26.2367 16.2926 26.2067 16.1322L24.8738 8.99964C24.7426 8.29763 24.9517 7.58075 25.4544 7.00903L30.5923 1.16601Z" fill="#F6F6F6"/>
<path d="M3.09361 7.89703C3.09361 7.07246 3.88613 6.40233 4.86845 6.39626L28.041 6.25324C29.1278 6.24654 30.013 6.98417 30.013 7.89642C30.013 8.8134 29.1189 9.55295 28.0266 9.53946L16.5533 9.39784H13.9801H13.5843H12.5946H11.6049H9.82347H4.88159C3.89412 9.39784 3.09361 8.7259 3.09361 7.89703Z" fill="#F6F6F6"/>
<path d="M13.9574 8.07133C14.1952 7.31488 15.0763 6.83216 15.9969 6.95396C17.0522 7.09357 17.7369 7.96365 17.4757 8.83317L14.0907 20.1022L10.7005 31.3883C10.4347 32.2732 9.36467 32.8096 8.31047 32.5865C7.24809 32.3617 6.60885 31.452 6.88834 30.5628L13.9574 8.07133Z" fill="#F6F6F6"/>
<path d="M23.8239 32.9802C23.989 32.9948 24.1593 32.9817 24.3211 32.9506C27.7469 32.2911 28.0337 27.7719 28.0337 24.6832C28.0337 19.684 23.4611 16.376 18.1912 16.376C15.658 16.376 14.4994 16.8774 13.3396 18.1966C12.7809 18.8321 13.2343 19.6989 14.1752 19.6989C14.2422 19.6989 14.4558 19.694 14.522 19.6851C21.1026 18.8002 26.0443 21.3938 24.0749 28.0061C23.1851 31.1706 22.1903 32.8357 23.8239 32.9802Z" fill="#F6F6F6"/>
<path d="M7.33266 5.95521C7.33798 6.21704 7.59277 6.73575 8.56945 6.71593L8.58539 7.50142L8.60133 8.28691L7.38048 8.31168L6.15166 7.94371L6.12776 6.76547L6.11979 6.37273L7.34063 6.34795" stroke="#F6F6F6" stroke-width="0.65945"/>
<path d="M25.7186 10.8949C25.4548 9.83979 24.2898 9.13637 23.7402 8.91656L25.3889 7.59766L26.378 8.25711L27.3672 9.90573L25.7186 10.8949Z" fill="#F6F6F6" stroke="#F6F6F6" stroke-width="0.65945"/>
<path d="M11.8377 20.0542L13.452 21.0985C14.1779 19.1436 15.4924 19.298 16.1551 19.2104L15.5629 17.2109L13.8929 17.8143L11.8377 20.0542Z" fill="#F6F6F6" stroke="#F6F6F6" stroke-width="0.65945"/>
<path d="M7.58197 9.08029C7.0547 9.08913 6.49207 9.61041 6.27666 9.86995L5.95355 10.2593L5.94712 9.87548L5.92139 8.34033L6.58047 8.32929L7.5691 8.31272L7.58197 9.08029Z" fill="#F6F6F6" stroke="#F6F6F6" stroke-width="0.65945"/>
<path d="M14.6765 10.3994L13.5334 10.6796C13.7473 9.35246 12.6324 9.0571 12.0482 9.07531L12.5444 6.79785L13.1539 7.02338L14.0296 8.40214L14.4103 9.24613L14.6765 10.3994Z" fill="#F6F6F6"/>
<path d="M12.0482 9.07531C12.0482 9.07531 12.0482 9.07531 12.0482 9.07531ZM12.0482 9.07531C12.6324 9.0571 13.7473 9.35246 13.5334 10.6796L14.6765 10.3994L14.4103 9.24613L14.0296 8.40214L13.1539 7.02338L12.5444 6.79785L12.0482 9.07531Z" stroke="#F6F6F6" stroke-width="0.65945"/>
<path d="M18.3156 9.05873C17.682 9.18781 16.9415 9.9399 16.6505 10.2998L16.4779 10.0532L16.8332 8.23347L18.2039 8.1233L18.3156 9.05873Z" fill="#F6F6F6" stroke="#F6F6F6" stroke-width="0.65945"/>
<path d="M27.521 5.34443C26.788 6.43818 25.1183 6.68548 24.3751 6.67242L24.7886 8.52408L26.5805 8.09448L28.3966 6.28203L27.521 5.34443Z" fill="#F6F6F6" stroke="#F6F6F6" stroke-width="0.65945"/>
<path d="M16.7979 16.8668C15.0317 16.8196 15.0459 15.5006 15.2737 14.847L14.31 15.481L14.5726 17.4671L16.7979 16.8668Z" fill="#F6F6F6" stroke="#F6F6F6" stroke-width="0.65945"/>
<path d="M48.055 21.9119C48.1663 23.136 48.4862 23.922 49.0148 24.2697C48.8757 24.6314 48.6323 24.9096 48.2845 25.1043C47.9507 25.313 47.5542 25.4173 47.0952 25.4173C46.4553 25.4173 45.9685 25.2087 45.6346 24.7913C45.3147 24.374 45.0852 23.7968 44.9461 23.0595C44.8626 22.5727 44.8 22.0788 44.7583 21.5781H41.0025C40.5852 22.5796 40.1331 23.7203 39.6462 25H36.9755L43.3812 11.2288H47.2413L48.055 21.9119ZM44.2992 13.5449C43.7567 14.8107 43.1308 16.313 42.4213 18.0518C42.2962 18.3578 42.164 18.6778 42.0249 19.0116C41.8997 19.3316 41.7606 19.6654 41.6076 20.0132H44.6539L44.2992 13.5449ZM54.3882 15.7566C54.7498 15.1863 55.2228 14.7412 55.807 14.4212C56.4051 14.0874 57.0659 13.9205 57.7892 13.9205C58.8603 13.9205 59.6254 14.2613 60.0844 14.9429C60.5574 15.6106 60.7938 16.5912 60.7938 17.8849C60.7938 19.2342 60.5574 20.4792 60.0844 21.6198C59.6254 22.7604 58.9299 23.6785 57.9979 24.374C57.0798 25.0696 55.967 25.4173 54.6594 25.4173C54.1169 25.4173 53.5814 25.3338 53.0528 25.1669L52.3851 28.7558L49.1301 29.0896L51.9678 14.3586L54.6385 14.0248L54.3882 15.7566ZM53.3657 23.6437C53.5605 23.8107 53.79 23.9359 54.0543 24.0193C54.3186 24.1028 54.5759 24.1445 54.8263 24.1445C55.4801 24.1445 55.9878 23.8176 56.3495 23.1638C56.7251 22.5101 57.0311 21.5085 57.2676 20.1592C57.518 18.9073 57.6432 17.8779 57.6432 17.0711C57.6432 16.5426 57.5597 16.1461 57.3928 15.8818C57.2398 15.6036 56.9616 15.4645 56.5582 15.4645C55.96 15.4645 55.4732 15.7427 55.0976 16.2991C54.7359 16.8555 54.4855 17.5163 54.3464 18.2813L53.3657 23.6437ZM68.1106 13.9413C70.2389 13.9413 71.303 14.762 71.303 16.4034C71.303 17.558 70.7883 18.4552 69.759 19.0951C68.7435 19.735 67.3594 20.0549 65.6067 20.0549H64.8764C64.8347 20.4305 64.8138 20.7852 64.8138 21.119C64.8138 21.8145 64.953 22.3431 65.2312 22.7048C65.5094 23.0526 65.9823 23.2264 66.65 23.2264C67.2342 23.2264 67.7767 23.1012 68.2775 22.8509C68.7783 22.5866 69.1608 22.2179 69.4251 21.745C69.759 21.898 69.9259 22.204 69.9259 22.6631C69.9259 23.1638 69.7311 23.6298 69.3416 24.0611C68.9661 24.4784 68.4514 24.8053 67.7976 25.0417C67.1438 25.2921 66.4274 25.4173 65.6485 25.4173C64.3548 25.4173 63.3672 25.0626 62.6856 24.3532C62.004 23.6298 61.6632 22.5309 61.6632 21.0564C61.6632 19.8184 61.8996 18.6569 62.3726 17.5719C62.8595 16.4869 63.5828 15.6106 64.5426 14.9429C65.5163 14.2752 66.7056 13.9413 68.1106 13.9413ZM67.6515 15.0681C67.0395 15.0681 66.5039 15.4367 66.0449 16.1739C65.5859 16.9112 65.2451 17.8849 65.0225 19.0951C66.024 19.0951 66.8656 18.8377 67.5472 18.3231C68.2288 17.8084 68.5696 17.1129 68.5696 16.2365C68.5696 15.4576 68.2636 15.0681 67.6515 15.0681ZM73.1747 16.7373C73.0078 16.3339 72.813 16.014 72.5905 15.7775C72.3679 15.541 72.0758 15.4019 71.7141 15.3602C71.8115 14.9011 72.048 14.5534 72.4235 14.3169C72.813 14.0665 73.2651 13.9413 73.7798 13.9413C74.3779 13.9413 74.8509 14.1152 75.1986 14.463C75.5603 14.8107 75.8872 15.3324 76.1793 16.0279L77.1391 18.3022C78.0016 17.6902 78.4328 16.8973 78.4328 15.9235C78.4328 15.395 78.2937 14.8942 78.0155 14.4212C78.4745 14.1013 79.01 13.9413 79.6221 13.9413C80.1646 13.9413 80.575 14.0874 80.8532 14.3795C81.1314 14.6577 81.2705 15.0542 81.2705 15.5688C81.2705 16.2643 81.034 16.8903 80.561 17.4467C80.0881 18.0031 79.4343 18.5248 78.5997 19.0116L77.619 19.5333L78.8292 22.6213C79.1491 23.4699 79.636 23.9289 80.2898 23.9985C80.1785 24.4436 79.9351 24.7913 79.5595 25.0417C79.1839 25.2921 78.7318 25.4173 78.2032 25.4173C77.6051 25.4173 77.1252 25.2434 76.7635 24.8957C76.4019 24.534 76.0819 24.0124 75.8037 23.3308L74.8439 20.8686C74.3988 21.1886 74.0441 21.5711 73.7798 22.0162C73.5294 22.4614 73.4042 22.9343 73.4042 23.4351C73.4042 23.9498 73.5433 24.4436 73.8215 24.9165C73.3764 25.2504 72.8408 25.4173 72.2149 25.4173C71.6724 25.4173 71.262 25.2713 70.9838 24.9791C70.6917 24.687 70.5456 24.2836 70.5456 23.7689C70.5456 22.4196 71.5263 21.1886 73.4877 20.0758L74.3431 19.6376L73.1747 16.7373ZM95.2842 11.2288C95.2842 12.7868 94.5052 13.5658 92.9473 13.5658C92.5161 13.5658 92.057 13.5171 91.5702 13.4197C91.0833 13.3084 90.659 13.1693 90.2974 13.0024L89.6088 16.946H93.4898C93.4898 17.6136 93.3089 18.1353 92.9473 18.5109C92.5856 18.8725 92.057 19.0534 91.3615 19.0534C90.666 19.0534 89.9705 18.8864 89.275 18.5526L88.1274 25H84.6011L87.2093 11.2288H95.2842ZM100.557 11.2288L97.8653 25H94.3808L97.0307 11.2288H100.557ZM109.226 11.2288C109.588 11.2288 109.935 11.208 110.269 11.1662C110.617 11.1245 110.888 11.0689 111.083 10.9993C111.18 11.1245 111.25 11.2845 111.292 11.4792C111.347 11.674 111.375 11.8687 111.375 12.0634C111.375 12.5781 111.173 12.9328 110.77 13.1276C110.381 13.3084 109.845 13.3988 109.163 13.3988H107.912L106.138 22.3501C106.041 22.9621 105.992 23.4073 105.992 23.6855C105.992 24.1167 106.082 24.4923 106.263 24.8122C105.721 25.2156 105.088 25.4173 104.364 25.4173C103.224 25.4173 102.653 24.8331 102.653 23.6646C102.653 23.0247 102.772 22.1136 103.008 20.9312L104.531 13.3988H103.175C102.521 13.3988 102.007 13.4545 101.631 13.5658C101.575 13.4545 101.527 13.3154 101.485 13.1484C101.457 12.9676 101.443 12.8076 101.443 12.6685C101.443 12.126 101.631 11.7505 102.007 11.5418C102.396 11.3332 102.911 11.2288 103.551 11.2288H109.226ZM114.457 15.9861C114.833 15.2906 115.334 14.7759 115.96 14.4421C116.599 14.1083 117.33 13.9413 118.15 13.9413C120 13.9413 120.926 14.7899 120.926 16.4869C120.926 16.9738 120.863 17.5302 120.738 18.1561C120.626 18.7821 120.46 19.5402 120.237 20.4305C120.056 21.1677 119.924 21.738 119.841 22.1414C119.757 22.5448 119.715 22.8856 119.715 23.1638C119.715 23.456 119.771 23.6855 119.882 23.8524C120.007 24.0193 120.216 24.1167 120.508 24.1445C120.383 24.5618 120.119 24.8748 119.715 25.0835C119.326 25.306 118.881 25.4173 118.38 25.4173C117.796 25.4173 117.337 25.2643 117.003 24.9583C116.669 24.6383 116.502 24.1723 116.502 23.5603C116.502 23.1847 116.551 22.7535 116.648 22.2666C116.745 21.7798 116.912 21.0356 117.149 20.034C117.552 18.3926 117.754 17.3007 117.754 16.7582C117.754 16.3826 117.664 16.0905 117.483 15.8818C117.316 15.6593 117.058 15.548 116.711 15.548C116.085 15.548 115.584 15.8818 115.208 16.5495C114.833 17.2033 114.555 17.9962 114.374 18.9282L113.184 25L109.929 25.3338L112.079 14.3586L114.749 14.0248L114.457 15.9861ZM128.527 13.9413C130.655 13.9413 131.719 14.762 131.719 16.4034C131.719 17.558 131.204 18.4552 130.175 19.0951C129.159 19.735 127.775 20.0549 126.023 20.0549H125.292C125.251 20.4305 125.23 20.7852 125.23 21.119C125.23 21.8145 125.369 22.3431 125.647 22.7048C125.925 23.0526 126.398 23.2264 127.066 23.2264C127.65 23.2264 128.193 23.1012 128.693 22.8509C129.194 22.5866 129.577 22.2179 129.841 21.745C130.175 21.898 130.342 22.204 130.342 22.6631C130.342 23.1638 130.147 23.6298 129.758 24.0611C129.382 24.4784 128.867 24.8053 128.214 25.0417C127.56 25.2921 126.843 25.4173 126.064 25.4173C124.771 25.4173 123.783 25.0626 123.102 24.3532C122.42 23.6298 122.079 22.5309 122.079 21.0564C122.079 19.8184 122.316 18.6569 122.789 17.5719C123.275 16.4869 123.999 15.6106 124.959 14.9429C125.932 14.2752 127.122 13.9413 128.527 13.9413ZM128.068 15.0681C127.455 15.0681 126.92 15.4367 126.461 16.1739C126.002 16.9112 125.661 17.8849 125.438 19.0951C126.44 19.0951 127.282 18.8377 127.963 18.3231C128.645 17.8084 128.986 17.1129 128.986 16.2365C128.986 15.4576 128.68 15.0681 128.068 15.0681ZM136.783 22.8717C136.783 22.4683 136.63 22.1275 136.324 21.8493C136.032 21.5572 135.538 21.1747 134.843 20.7017C134.078 20.201 133.514 19.728 133.152 19.2829C132.791 18.8377 132.61 18.2952 132.61 17.6554C132.61 16.932 132.826 16.2922 133.257 15.7358C133.702 15.1654 134.3 14.7273 135.051 14.4212C135.816 14.1013 136.665 13.9413 137.597 13.9413C138.501 13.9413 139.231 14.1013 139.788 14.4212C140.358 14.7273 140.643 15.235 140.643 15.9444C140.643 16.5147 140.455 16.9599 140.08 17.2798C139.718 17.5997 139.238 17.7597 138.64 17.7597C138.237 17.7597 137.945 17.6832 137.764 17.5302C137.958 17.0155 138.056 16.5634 138.056 16.1739C138.056 15.7984 137.958 15.5132 137.764 15.3184C137.583 15.1098 137.326 15.0055 136.992 15.0055C136.547 15.0055 136.178 15.1585 135.886 15.4645C135.608 15.7566 135.469 16.0974 135.469 16.4869C135.469 16.8903 135.615 17.2381 135.907 17.5302C136.213 17.8223 136.72 18.2048 137.43 18.6778C138.181 19.1785 138.737 19.6445 139.099 20.0758C139.461 20.507 139.642 21.0564 139.642 21.7241C139.642 22.4336 139.426 23.0734 138.995 23.6437C138.577 24.2002 137.993 24.6383 137.242 24.9583C136.505 25.2782 135.677 25.4382 134.759 25.4382C133.785 25.4382 132.937 25.2643 132.214 24.9165C131.504 24.5549 131.149 24.0193 131.149 23.3099C131.149 22.7813 131.351 22.3779 131.754 22.0997C132.158 21.8076 132.638 21.6615 133.194 21.6615C133.653 21.6615 134.029 21.7589 134.321 21.9536C134.126 22.4127 134.029 22.8091 134.029 23.143C134.029 23.5186 134.126 23.8176 134.321 24.0402C134.516 24.2488 134.801 24.3532 135.176 24.3532C135.635 24.3532 136.018 24.2141 136.324 23.9359C136.63 23.6437 136.783 23.289 136.783 22.8717ZM145.789 22.8717C145.789 22.4683 145.636 22.1275 145.33 21.8493C145.038 21.5572 144.544 21.1747 143.849 20.7017C143.084 20.201 142.52 19.728 142.159 19.2829C141.797 18.8377 141.616 18.2952 141.616 17.6554C141.616 16.932 141.832 16.2922 142.263 15.7358C142.708 15.1654 143.306 14.7273 144.058 14.4212C144.823 14.1013 145.671 13.9413 146.603 13.9413C147.507 13.9413 148.238 14.1013 148.794 14.4212C149.364 14.7273 149.65 15.235 149.65 15.9444C149.65 16.5147 149.462 16.9599 149.086 17.2798C148.724 17.5997 148.245 17.7597 147.646 17.7597C147.243 17.7597 146.951 17.6832 146.77 17.5302C146.965 17.0155 147.062 16.5634 147.062 16.1739C147.062 15.7984 146.965 15.5132 146.77 15.3184C146.589 15.1098 146.332 15.0055 145.998 15.0055C145.553 15.0055 145.184 15.1585 144.892 15.4645C144.614 15.7566 144.475 16.0974 144.475 16.4869C144.475 16.8903 144.621 17.2381 144.913 17.5302C145.219 17.8223 145.727 18.2048 146.436 18.6778C147.187 19.1785 147.744 19.6445 148.105 20.0758C148.467 20.507 148.648 21.0564 148.648 21.7241C148.648 22.4336 148.432 23.0734 148.001 23.6437C147.584 24.2002 147 24.6383 146.248 24.9583C145.511 25.2782 144.684 25.4382 143.765 25.4382C142.792 25.4382 141.943 25.2643 141.22 24.9165C140.51 24.5549 140.156 24.0193 140.156 23.3099C140.156 22.7813 140.357 22.3779 140.761 22.0997C141.164 21.8076 141.644 21.6615 142.201 21.6615C142.66 21.6615 143.035 21.7589 143.327 21.9536C143.133 22.4127 143.035 22.8091 143.035 23.143C143.035 23.5186 143.133 23.8176 143.327 24.0402C143.522 24.2488 143.807 24.3532 144.183 24.3532C144.642 24.3532 145.024 24.2141 145.33 23.9359C145.636 23.6437 145.789 23.289 145.789 22.8717Z" fill="#F6F6F6"/>
</svg>
