<svg width="389" height="86" viewBox="0 0 389 86" fill="none" xmlns="http://www.w3.org/2000/svg">
<path d="M11.8274 1.79112C12.3493 0.22649 14.6854 -0.287176 16.0542 0.861735C16.4 1.15204 16.6383 1.52025 16.7401 1.92181L20.9486 18.5249C21.4347 20.4426 20.9241 22.4432 19.5448 24.0255L7.02014 38.393C6.56923 38.9103 5.93785 39.297 5.21345 39.4997C2.41345 40.2832 -0.29137 38.1209 0.504433 35.7352L11.8274 1.79112Z" fill="#FFDD00"/>
<path d="M79.6261 3.22391C79.9865 2.81402 80.4706 2.49217 81.0285 2.29149C83.6242 1.35771 86.3715 3.32165 85.6866 5.62135L74.7787 42.245C74.0848 44.575 70.4432 45.1321 68.8146 43.1575C68.5293 42.8116 68.3408 42.4161 68.2632 42.0005L64.8096 23.5204C64.4697 21.7015 65.0115 19.8441 66.3141 18.3628L79.6261 3.22391Z" fill="#FFDD00"/>
<path d="M8.37864 20.6636C8.37864 18.5272 10.432 16.7909 12.9771 16.7752L73.0157 16.4046C75.8315 16.3872 78.1252 18.2984 78.1252 20.662C78.1252 23.0378 75.8086 24.9539 72.9785 24.919L43.2519 24.5521H36.585H35.5593H32.9951H30.4308H25.8153H13.0112C10.4527 24.5521 8.37864 22.8111 8.37864 20.6636Z" fill="#FFDD00"/>
<path d="M36.5261 21.1152C37.1421 19.1553 39.425 17.9045 41.8104 18.2201C44.5446 18.5818 46.3186 20.8362 45.6418 23.0891L36.8714 52.2865L28.0877 81.528C27.399 83.8206 24.6265 85.2106 21.8952 84.6325C19.1426 84.05 17.4864 81.6931 18.2105 79.3892L36.5261 21.1152Z" fill="#FFDD00"/>
<path d="M62.0896 85.6525C62.5174 85.6904 62.9584 85.6564 63.3777 85.5757C72.2537 83.8671 72.9967 72.1581 72.9967 64.1556C72.9967 51.2028 61.1496 42.6319 47.4956 42.6319C40.9323 42.6319 37.9303 43.931 34.9252 47.3491C33.4778 48.9956 34.6526 51.2414 37.0904 51.2414C37.2638 51.2414 37.8175 51.2289 37.9888 51.2058C55.0389 48.9131 67.8424 55.633 62.7398 72.765C60.4345 80.964 57.857 85.278 62.0896 85.6525Z" fill="#FFDD00"/>
<path d="M19.3616 15.6311C19.3754 16.3095 20.0355 17.6535 22.5661 17.6021L22.6074 19.6373L22.6487 21.6724L19.4855 21.7366L16.3017 20.7832L16.2398 17.7305L16.2191 16.7129L19.3823 16.6487" stroke="#FFDD00" stroke-width="1.70859"/>
<path d="M66.9983 28.4301C66.3149 25.6963 63.2964 23.8738 61.8726 23.3043L66.144 19.8871L68.7069 21.5957L71.2698 25.8672L66.9983 28.4301Z" fill="#FFDD00" stroke="#FFDD00" stroke-width="1.70859"/>
<path d="M31.0347 52.1614L35.2172 54.8671C37.0979 49.802 40.5036 50.202 42.2208 49.9752L40.6863 44.7946L36.3596 46.3579L31.0347 52.1614Z" fill="#FFDD00" stroke="#FFDD00" stroke-width="1.70859"/>
<path d="M20.0091 23.7297C18.6424 23.7526 17.184 25.1038 16.6257 25.7766L15.7882 26.7856L15.7715 25.7909L15.7048 21.8118L17.4132 21.7831L19.9757 21.7402L20.0091 23.7297Z" fill="#FFDD00" stroke="#FFDD00" stroke-width="1.70859"/>
<path d="M38.3897 27.1473L35.428 27.8734C35.9822 24.4349 33.0936 23.6696 31.58 23.7168L32.8657 17.816L34.4449 18.4004L36.7137 21.9726L37.6999 24.1594L38.3897 27.1473Z" fill="#FFDD00"/>
<path d="M31.58 23.7168C31.58 23.7168 31.5799 23.7168 31.58 23.7168ZM31.58 23.7168C33.0936 23.6696 35.9822 24.4349 35.428 27.8734L38.3897 27.1473L37.6999 24.1594L36.7137 21.9726L34.4449 18.4004L32.8657 17.816L31.58 23.7168Z" stroke="#FFDD00" stroke-width="1.70859"/>
<path d="M47.8194 23.6742C46.1772 24.0087 44.2579 25.9581 43.5035 26.891L43.0561 26.2517L43.9772 21.5351L47.5299 21.2495L47.8194 23.6742Z" fill="#FFDD00" stroke="#FFDD00" stroke-width="1.70859"/>
<path d="M71.6691 14.0492C69.77 16.8831 65.444 17.5238 63.5183 17.4899L64.5897 22.2875L69.2323 21.1744L73.9379 16.4785L71.6691 14.0492Z" fill="#FFDD00" stroke="#FFDD00" stroke-width="1.70859"/>
<path d="M43.8853 43.9031C39.3094 43.781 39.3461 40.3635 39.9364 38.6701L37.4395 40.3127L38.1199 45.4584L43.8853 43.9031Z" fill="#FFDD00" stroke="#FFDD00" stroke-width="1.70859"/>
<path d="M124.871 57.4521C125.159 60.6237 125.988 62.66 127.357 63.561C126.997 64.498 126.366 65.2189 125.465 65.7234C124.6 66.264 123.573 66.5343 122.384 66.5343C120.726 66.5343 119.465 65.9937 118.6 64.9125C117.771 63.8313 117.176 62.3356 116.816 60.4255C116.599 59.164 116.437 57.8846 116.329 56.5871H106.598C105.517 59.1821 104.346 62.1374 103.084 65.4531H96.1643L112.761 29.7729H122.762L124.871 57.4521ZM115.14 35.7736C113.734 39.0533 112.112 42.9457 110.274 47.4508C109.95 48.2437 109.607 49.0726 109.247 49.9376C108.923 50.7666 108.562 51.6315 108.166 52.5326H116.059L115.14 35.7736ZM141.279 41.5041C142.216 40.0264 143.442 38.8731 144.956 38.0442C146.505 37.1792 148.217 36.7467 150.091 36.7467C152.867 36.7467 154.849 37.6297 156.038 39.3957C157.263 41.1257 157.876 43.6666 157.876 47.0183C157.876 50.5143 157.263 53.7399 156.038 56.6952C154.849 59.6506 153.047 62.0293 150.632 63.8313C148.253 65.6333 145.37 66.5343 141.982 66.5343C140.577 66.5343 139.189 66.3181 137.82 65.8856L136.09 75.1841L127.656 76.0491L135.008 37.882L141.928 37.0171L141.279 41.5041ZM138.63 61.9392C139.135 62.3716 139.73 62.696 140.414 62.9123C141.099 63.1285 141.766 63.2366 142.415 63.2366C144.109 63.2366 145.424 62.3897 146.361 60.6958C147.334 59.0018 148.127 56.4069 148.74 52.911C149.389 49.6673 149.713 47.0003 149.713 44.91C149.713 43.5404 149.497 42.5133 149.064 41.8285C148.668 41.1077 147.947 40.7473 146.902 40.7473C145.352 40.7473 144.091 41.4681 143.118 42.9097C142.18 44.3513 141.532 46.0633 141.171 48.0455L138.63 61.9392ZM176.833 36.8008C182.348 36.8008 185.105 38.9272 185.105 43.18C185.105 46.1714 183.771 48.496 181.104 50.1539C178.473 51.8117 174.887 52.6407 170.346 52.6407H168.454C168.346 53.6138 168.292 54.5328 168.292 55.3978C168.292 57.1998 168.652 58.5694 169.373 59.5064C170.094 60.4074 171.319 60.8579 173.049 60.8579C174.563 60.8579 175.968 60.5336 177.266 59.8848C178.563 59.2001 179.554 58.245 180.239 57.0196C181.104 57.4161 181.537 58.209 181.537 59.3983C181.537 60.6958 181.032 61.9031 180.023 63.0204C179.05 64.1016 177.716 64.9486 176.022 65.5612C174.329 66.21 172.472 66.5343 170.454 66.5343C167.102 66.5343 164.544 65.6153 162.778 63.7772C161.012 61.9031 160.129 59.0559 160.129 55.2356C160.129 52.028 160.741 49.0186 161.967 46.2074C163.228 43.3962 165.102 41.1257 167.589 39.3957C170.112 37.6658 173.193 36.8008 176.833 36.8008ZM175.644 39.7201C174.058 39.7201 172.671 40.6752 171.481 42.5853C170.292 44.4955 169.409 47.0183 168.832 50.1539C171.427 50.1539 173.608 49.4871 175.374 48.1536C177.14 46.8201 178.023 45.0181 178.023 42.7475C178.023 40.7292 177.23 39.7201 175.644 39.7201ZM189.954 44.045C189.522 42.9998 189.017 42.1709 188.44 41.5582C187.864 40.9455 187.107 40.5851 186.17 40.477C186.422 39.2876 187.035 38.3866 188.008 37.7739C189.017 37.1252 190.188 36.8008 191.522 36.8008C193.072 36.8008 194.297 37.2513 195.198 38.1523C196.135 39.0533 196.982 40.4049 197.739 42.2069L200.226 48.0996C202.46 46.5138 203.578 44.4594 203.578 41.9366C203.578 40.5671 203.217 39.2696 202.496 38.0442C203.686 37.2153 205.073 36.8008 206.659 36.8008C208.065 36.8008 209.128 37.1792 209.849 37.9361C210.569 38.6569 210.93 39.6841 210.93 41.0176C210.93 42.8196 210.317 44.4414 209.092 45.8831C207.866 47.3247 206.172 48.6762 204.01 49.9376L201.469 51.2891L204.605 59.2902C205.434 61.4887 206.695 62.678 208.389 62.8582C208.101 64.0115 207.47 64.9125 206.497 65.5612C205.524 66.21 204.352 66.5343 202.983 66.5343C201.433 66.5343 200.19 66.0838 199.253 65.1828C198.316 64.2458 197.487 62.8942 196.766 61.1282L194.279 54.7491C193.126 55.578 192.207 56.5691 191.522 57.7224C190.873 58.8757 190.549 60.1011 190.549 61.3986C190.549 62.7321 190.909 64.0115 191.63 65.2369C190.477 66.1019 189.089 66.5343 187.467 66.5343C186.062 66.5343 184.999 66.1559 184.278 65.3991C183.521 64.6422 183.142 63.597 183.142 62.2635C183.142 58.7676 185.683 55.578 190.765 52.6947L192.982 51.5595L189.954 44.045ZM247.239 29.7729C247.239 33.8094 245.22 35.8277 241.184 35.8277C240.066 35.8277 238.877 35.7016 237.616 35.4493C236.354 35.161 235.255 34.8006 234.318 34.3681L232.534 44.5856H242.589C242.589 46.3155 242.121 47.6671 241.184 48.6402C240.247 49.5772 238.877 50.0457 237.075 50.0457C235.273 50.0457 233.471 49.6133 231.669 48.7483L228.696 65.4531H219.559L226.317 29.7729H247.239ZM260.9 29.7729L253.926 65.4531H244.898L251.764 29.7729H260.9ZM283.361 29.7729C284.298 29.7729 285.199 29.7188 286.064 29.6107C286.965 29.5026 287.668 29.3584 288.172 29.1782C288.425 29.5026 288.605 29.917 288.713 30.4216C288.857 30.9262 288.929 31.4308 288.929 31.9353C288.929 33.2688 288.407 34.1879 287.361 34.6924C286.352 35.161 284.965 35.3952 283.199 35.3952H279.955L275.36 58.5874C275.108 60.1732 274.982 61.3265 274.982 62.0473C274.982 63.1645 275.216 64.1376 275.684 64.9666C274.279 66.0118 272.639 66.5343 270.765 66.5343C267.809 66.5343 266.332 65.0206 266.332 61.9932C266.332 60.3354 266.638 57.9747 267.251 54.9112L271.197 35.3952H267.683C265.989 35.3952 264.656 35.5394 263.683 35.8277C263.539 35.5394 263.412 35.179 263.304 34.7465C263.232 34.278 263.196 33.8635 263.196 33.5031C263.196 32.0975 263.683 31.1244 264.656 30.5838C265.665 30.0432 266.999 29.7729 268.656 29.7729H283.361ZM296.915 42.0988C297.888 40.2968 299.185 38.9632 300.807 38.0983C302.465 37.2333 304.357 36.8008 306.483 36.8008C311.277 36.8008 313.674 38.9993 313.674 43.3962C313.674 44.6577 313.511 46.0993 313.187 47.7211C312.899 49.343 312.466 51.3072 311.89 53.6138C311.421 55.5239 311.079 57.0016 310.862 58.0468C310.646 59.092 310.538 59.9749 310.538 60.6958C310.538 61.4526 310.682 62.0473 310.971 62.4798C311.295 62.9123 311.835 63.1645 312.592 63.2366C312.268 64.3178 311.583 65.1288 310.538 65.6694C309.529 66.246 308.376 66.5343 307.078 66.5343C305.564 66.5343 304.375 66.1379 303.51 65.345C302.645 64.5161 302.213 63.3087 302.213 61.7229C302.213 60.7498 302.339 59.6326 302.591 58.3711C302.843 57.1097 303.276 55.1815 303.889 52.5866C304.934 48.3338 305.456 45.5046 305.456 44.099C305.456 43.1259 305.222 42.3691 304.753 41.8285C304.321 41.2518 303.654 40.9635 302.753 40.9635C301.131 40.9635 299.834 41.8285 298.861 43.5584C297.888 45.2523 297.167 47.3067 296.698 49.7214L293.617 65.4531L285.183 66.3181L290.752 37.882L297.672 37.0171L296.915 42.0988ZM333.367 36.8008C338.882 36.8008 341.639 38.9272 341.639 43.18C341.639 46.1714 340.305 48.496 337.638 50.1539C335.007 51.8117 331.421 52.6407 326.88 52.6407H324.988C324.88 53.6138 324.826 54.5328 324.826 55.3978C324.826 57.1998 325.186 58.5694 325.907 59.5064C326.628 60.4074 327.853 60.8579 329.583 60.8579C331.097 60.8579 332.502 60.5336 333.8 59.8848C335.097 59.2001 336.088 58.245 336.773 57.0196C337.638 57.4161 338.071 58.209 338.071 59.3983C338.071 60.6958 337.566 61.9031 336.557 63.0204C335.584 64.1016 334.25 64.9486 332.556 65.5612C330.863 66.21 329.006 66.5343 326.988 66.5343C323.636 66.5343 321.078 65.6153 319.312 63.7772C317.546 61.9031 316.663 59.0559 316.663 55.2356C316.663 52.028 317.275 49.0186 318.501 46.2074C319.762 43.3962 321.636 41.1257 324.123 39.3957C326.646 37.6658 329.727 36.8008 333.367 36.8008ZM332.178 39.7201C330.592 39.7201 329.205 40.6752 328.015 42.5853C326.826 44.4955 325.943 47.0183 325.366 50.1539C327.961 50.1539 330.142 49.4871 331.908 48.1536C333.674 46.8201 334.557 45.0181 334.557 42.7475C334.557 40.7292 333.764 39.7201 332.178 39.7201ZM354.759 59.9389C354.759 58.8937 354.363 58.0107 353.57 57.2899C352.813 56.5331 351.534 55.5419 349.732 54.3166C347.75 53.0191 346.29 51.7937 345.353 50.6404C344.416 49.4871 343.947 48.0815 343.947 46.4237C343.947 44.5495 344.506 42.8917 345.623 41.4501C346.776 39.9724 348.326 38.8371 350.272 38.0442C352.255 37.2153 354.453 36.8008 356.868 36.8008C359.21 36.8008 361.103 37.2153 362.544 38.0442C364.022 38.8371 364.761 40.1526 364.761 41.9907C364.761 43.4683 364.274 44.6216 363.301 45.4506C362.364 46.2795 361.121 46.694 359.571 46.694C358.526 46.694 357.769 46.4957 357.3 46.0993C357.805 44.7658 358.057 43.5945 358.057 42.5853C358.057 41.6122 357.805 40.8734 357.3 40.3688C356.832 39.8282 356.165 39.5579 355.3 39.5579C354.147 39.5579 353.192 39.9544 352.435 40.7473C351.714 41.5041 351.354 42.3871 351.354 43.3962C351.354 44.4414 351.732 45.3424 352.489 46.0993C353.282 46.8561 354.597 47.8473 356.435 49.0726C358.382 50.3701 359.823 51.5775 360.76 52.6947C361.697 53.812 362.166 55.2356 362.166 56.9656C362.166 58.8036 361.607 60.4615 360.49 61.9392C359.409 63.3808 357.895 64.5161 355.949 65.345C354.039 66.1739 351.894 66.5884 349.516 66.5884C346.993 66.5884 344.794 66.1379 342.92 65.2369C341.082 64.2998 340.163 62.9123 340.163 61.0742C340.163 59.7046 340.686 58.6595 341.731 57.9386C342.776 57.1818 344.019 56.8034 345.461 56.8034C346.65 56.8034 347.623 57.0557 348.38 57.5602C347.876 58.7496 347.623 59.7767 347.623 60.6417C347.623 61.6148 347.876 62.3897 348.38 62.9663C348.885 63.5069 349.624 63.7772 350.597 63.7772C351.786 63.7772 352.777 63.4168 353.57 62.696C354.363 61.9392 354.759 61.0201 354.759 59.9389ZM378.094 59.9389C378.094 58.8937 377.698 58.0107 376.905 57.2899C376.148 56.5331 374.869 55.5419 373.067 54.3166C371.084 53.0191 369.625 51.7937 368.688 50.6404C367.751 49.4871 367.282 48.0815 367.282 46.4237C367.282 44.5495 367.841 42.8917 368.958 41.4501C370.111 39.9724 371.661 38.8371 373.607 38.0442C375.59 37.2153 377.788 36.8008 380.203 36.8008C382.545 36.8008 384.438 37.2153 385.879 38.0442C387.357 38.8371 388.096 40.1526 388.096 41.9907C388.096 43.4683 387.609 44.6216 386.636 45.4506C385.699 46.2795 384.456 46.694 382.906 46.694C381.861 46.694 381.104 46.4957 380.635 46.0993C381.14 44.7658 381.392 43.5945 381.392 42.5853C381.392 41.6122 381.14 40.8734 380.635 40.3688C380.167 39.8282 379.5 39.5579 378.635 39.5579C377.482 39.5579 376.527 39.9544 375.77 40.7473C375.049 41.5041 374.689 42.3871 374.689 43.3962C374.689 44.4414 375.067 45.3424 375.824 46.0993C376.617 46.8561 377.932 47.8473 379.77 49.0726C381.716 50.3701 383.158 51.5775 384.095 52.6947C385.032 53.812 385.501 55.2356 385.501 56.9656C385.501 58.8036 384.942 60.4615 383.825 61.9392C382.744 63.3808 381.23 64.5161 379.284 65.345C377.374 66.1739 375.229 66.5884 372.85 66.5884C370.328 66.5884 368.129 66.1379 366.255 65.2369C364.417 64.2998 363.498 62.9123 363.498 61.0742C363.498 59.7046 364.02 58.6595 365.066 57.9386C366.111 57.1818 367.354 56.8034 368.796 56.8034C369.985 56.8034 370.958 57.0557 371.715 57.5602C371.211 58.7496 370.958 59.7767 370.958 60.6417C370.958 61.6148 371.211 62.3897 371.715 62.9663C372.22 63.5069 372.959 63.7772 373.932 63.7772C375.121 63.7772 376.112 63.4168 376.905 62.696C377.698 61.9392 378.094 61.0201 378.094 59.9389Z" fill="#FFDD00"/>
</svg>
