<svg width="25" height="25" viewBox="0 0 25 25" fill="none" xmlns="http://www.w3.org/2000/svg">
<path d="M7.89355 22.5C7.34355 22.5 6.87289 22.3043 6.48155 21.913C6.09022 21.5217 5.89422 21.0507 5.89355 20.5C5.89355 19.95 6.08955 19.4793 6.48155 19.088C6.87355 18.6967 7.34422 18.5007 7.89355 18.5C8.44355 18.5 8.91455 18.696 9.30655 19.088C9.69855 19.48 9.89422 19.9507 9.89355 20.5C9.89355 21.05 9.69789 21.521 9.30655 21.913C8.91522 22.305 8.44422 22.5007 7.89355 22.5ZM17.8936 22.5C17.3436 22.5 16.8729 22.3043 16.4816 21.913C16.0902 21.5217 15.8942 21.0507 15.8936 20.5C15.8936 19.95 16.0896 19.4793 16.4816 19.088C16.8736 18.6967 17.3442 18.5007 17.8936 18.5C18.4436 18.5 18.9146 18.696 19.3066 19.088C19.6986 19.48 19.8942 19.9507 19.8936 20.5C19.8936 21.05 19.6979 21.521 19.3066 21.913C18.9152 22.305 18.4442 22.5007 17.8936 22.5ZM6.09355 4.5H20.8436C21.2269 4.5 21.5186 4.671 21.7186 5.013C21.9186 5.355 21.9269 5.70067 21.7436 6.05L18.1936 12.45C18.0102 12.7833 17.7646 13.0417 17.4566 13.225C17.1486 13.4083 16.8109 13.5 16.4436 13.5H8.99356L7.89355 15.5H19.8936V17.5H7.89355C7.14355 17.5 6.57689 17.171 6.19355 16.513C5.81022 15.855 5.79355 15.2007 6.14355 14.55L7.49355 12.1L3.89355 4.5H1.89355V2.5H5.14355L6.09355 4.5Z" fill="#F6F6F6"/>
</svg>
